<svg id="Layer_1" data-name="Layer 1" xmlns="http://www.w3.org/2000/svg" viewBox="0 0 1405.52 465.86"><defs><style>.cls-1{fill:#cb3694;}.cls-2{fill:#f3f6fb;}</style></defs><title>yfsn</title><path class="cls-1" d="M409.4,237.36l-1.24-21.09h-3.72L349.85,474.94H288.43L385.2,19h59.55L459,256.59l1.24,21.09H464L519.19,19H580.6L483.83,474.94H424.28Z" transform="translate(-3.87 -14.05)"/><path class="cls-1" d="M727.61,381.28A172,172,0,0,1,705.9,430.9c-9.3,12.41-19.85,24.19-34.12,33.5-14.89,10.54-32.88,15.51-54.59,15.51s-37.84-5-49-15.51c-10.55-9.31-16.13-21.09-18.61-33.5-4.34-14.27-4.34-30.4-.62-49.63L606,112.68a150.48,150.48,0,0,1,21.09-49c9.3-12.41,19.23-24.81,33.5-34.12S693.49,14,715.82,14s37.84,6.2,48.38,15.51a61.38,61.38,0,0,1,19.23,34.12c4.34,13.65,4.34,29.77,1.24,49Zm-9.93-268.6c2.48-12.41,1.24-21.71-3.1-28.53-2.48-3.1-6.82-5-12.41-5-11.79,0-19.23,8.68-23.57,16.75A66.39,66.39,0,0,0,673,112.68L616,381.28c-3.1,11.79-1.86,21.71,3.1,28.54,2.48,3.1,6.2,5,11.79,5,11.79,0,19.23-7.44,23.57-16.75a80.79,80.79,0,0,0,6.2-16.75Z" transform="translate(-3.87 -14.05)"/><path class="cls-1" d="M843,474.94H790.88L826.23,19h62L864.69,256l-2.48,14.89h5L872.76,256,951.54,19h48.38L978.21,256l-1.86,14.89h5l5-14.89,76.92-237h62L967,474.94H914.94l14.27-215.87,2.48-26.67h-2.48l-9.92,26.67Z" transform="translate(-3.87 -14.05)"/><path class="cls-2" d="M51,210.06l.3,2.11h.6l1.51-2.11,31.41-71h32L56.42,266.53,36.49,361.06H3.87L23.8,266.53l-6-127.45h32Z" transform="translate(-3.87 -14.05)"/><path class="cls-2" d="M170.88,315.46a83.7,83.7,0,0,1-10.57,24.16c-4.53,6-9.66,11.78-16.61,16.31-7.25,5.13-16,7.55-26.58,7.55s-18.42-2.42-23.86-7.55a28.62,28.62,0,0,1-9.06-16.31c-2.11-6.95-2.11-14.8-.3-24.16l27.78-130.77A73.28,73.28,0,0,1,122,160.83c4.53-6,9.36-12.08,16.31-16.61a48.71,48.71,0,0,1,26.88-7.55c10.87,0,18.42,3,23.56,7.55a29.88,29.88,0,0,1,9.36,16.61c2.11,6.64,2.11,14.5.6,23.86ZM166,184.69c1.21-6,.6-10.57-1.51-13.89-1.21-1.51-3.32-2.42-6-2.42-5.74,0-9.36,4.23-11.48,8.15a32.35,32.35,0,0,0-2.72,8.15L116.52,315.46C115,321.2,115.61,326,118,329.35a6.85,6.85,0,0,0,5.74,2.42c5.74,0,9.36-3.62,11.48-8.15a39.33,39.33,0,0,0,3-8.15Z" transform="translate(-3.87 -14.05)"/><path class="cls-2" d="M309.5,139.09,272,315.46a83.69,83.69,0,0,1-10.57,24.16c-4.53,6-9.66,11.78-16.61,16.31-7.25,5.13-16,7.55-26.58,7.55s-18.42-2.42-23.86-7.55a28.62,28.62,0,0,1-9.06-16.31c-2.11-6.95-2.11-14.8-.3-24.16l37.45-176.37h32.62L217.69,315.46c-1.51,5.74-.91,10.57,1.51,13.89a6.85,6.85,0,0,0,5.74,2.42c5.74,0,9.36-3.62,11.48-8.15a39.32,39.32,0,0,0,3-8.15l37.45-176.37Z" transform="translate(-3.87 -14.05)"/><path class="cls-2" d="M337,361.06l2.72-93.62h-8.76l-19.63,93.62H278.69l47.11-222h32.62c39,0,50.74,21.74,42,64-4.83,22-14.8,42-29,50.43L369.6,361.06Zm.6-123.82c4.53,0,10.57-.3,16.31-4.83s11.48-12.38,14.8-28.09,1.21-23.86-2.72-28.39-10-4.53-14.5-4.53Z" transform="translate(-3.87 -14.05)"/><path class="cls-2" d="M536.6,172.61h-45L479.22,230.9h30.2l-6.95,33.52h-30.2l-20.54,96.64H419.12l47.11-222h77.61Z" transform="translate(-3.87 -14.05)"/><path class="cls-2" d="M636.26,139.09,598.81,315.46a83.69,83.69,0,0,1-10.57,24.16c-4.53,6-9.66,11.78-16.61,16.31-7.25,5.13-16,7.55-26.58,7.55s-18.42-2.42-23.86-7.55a28.62,28.62,0,0,1-9.06-16.31c-2.11-6.95-2.11-14.8-.3-24.16l37.45-176.37H581.9L544.45,315.46c-1.51,5.74-.91,10.57,1.51,13.89a6.85,6.85,0,0,0,5.74,2.42c5.74,0,9.36-3.62,11.48-8.15a39.32,39.32,0,0,0,3-8.15l37.45-176.37Z" transform="translate(-3.87 -14.05)"/><path class="cls-2" d="M633.85,172.61l7.25-33.52h94.22l-7.25,33.52h-30.8L657.4,361.06H624.79l39.86-188.45Z" transform="translate(-3.87 -14.05)"/><path class="cls-2" d="M827.13,139.09,789.68,315.46a83.69,83.69,0,0,1-10.57,24.16c-4.53,6-9.66,11.78-16.61,16.31-7.25,5.13-16,7.55-26.58,7.55s-18.42-2.42-23.86-7.55A28.62,28.62,0,0,1,703,339.62c-2.11-6.95-2.11-14.8-.3-24.16l37.45-176.37h32.62L735.32,315.46c-1.51,5.74-.91,10.57,1.51,13.89a6.85,6.85,0,0,0,5.74,2.42c5.74,0,9.36-3.62,11.48-8.15a39.32,39.32,0,0,0,3-8.15l37.45-176.37Z" transform="translate(-3.87 -14.05)"/><path class="cls-2" d="M854.61,361.06l2.72-93.62h-8.76l-19.63,93.62H796.33l47.11-222h32.62c39,0,50.74,21.74,42,64-4.83,22-14.8,42-29,50.43l-1.81,107.51Zm.6-123.82c4.53,0,10.57-.3,16.31-4.83S883,220,886.32,204.32s1.21-23.86-2.72-28.39-10-4.53-14.5-4.53Z" transform="translate(-3.87 -14.05)"/><path class="cls-2" d="M944.91,139.09h74.59l-7.25,33.52h-42L957.9,230.9h30.2l-7.55,35.64h-30.2l-13,61h42l-6.95,33.52H897.8Z" transform="translate(-3.87 -14.05)"/><path class="cls-2" d="M1110.41,198.58c1.51-7.25,3-15.4,2.11-21.74-.91-6-3.32-10.27-8.46-10.27-8.46.3-13,9.06-15.7,22-1.51,7.55-.3,15.4,3,23.86s7.25,17.21,11.78,26.58a228.2,228.2,0,0,1,13.89,33.82c3.32,11.17,4.83,22.65,2.11,34.73-3.32,14.8-8.15,28.39-17.52,39s-21.44,16.91-39.56,16.91c-20.84,0-31.11-7.85-35-19.93-4.53-12.08-2.11-27.78,1.21-44.7l32.62-3c-2.11,9.36-3.62,18.72-2.72,25.67.91,7.25,3.32,12.08,10.27,12.08,9.66,0,15.1-10.27,18.42-24.46,1.51-7.25,0-15.7-3.32-24.46-.91-2.11-1.81-4.53-2.72-6.64s-1.81-4.53-2.72-6.64c-2.11-4.53-4.53-9.36-6.95-14.5s-4.83-10.27-7.25-16a103.36,103.36,0,0,1-8.76-34.43c-.91-5.74,0-11.78,1.21-17.82,2.42-12.08,7.85-25.07,17.21-35,8.76-9.66,20.84-16.61,36.24-16.91,20.23-.3,29.6,7.85,33.52,19.63,3.63,12.08,2.42,26.88-.3,39.26Z" transform="translate(-3.87 -14.05)"/><path class="cls-2" d="M1165.07,139.09h74.59l-7.25,33.52h-42l-12.38,58.29h30.2l-7.55,35.64h-30.2l-13,61h42l-6.95,33.52H1118Z" transform="translate(-3.87 -14.05)"/><path class="cls-2" d="M1250.23,139.09h32.62l-40.77,191.77h43.19l-6.34,30.2h-75.8Z" transform="translate(-3.87 -14.05)"/><path class="cls-2" d="M1402.14,172.61h-45l-12.38,58.29H1375L1368,264.42h-30.2l-20.54,96.64h-32.62l47.11-222h77.61Z" transform="translate(-3.87 -14.05)"/></svg>